<?xml version="1.0" standalone="no"?><!DOCTYPE svg PUBLIC "-//W3C//DTD SVG 1.1//EN" "http://www.w3.org/Graphics/SVG/1.1/DTD/svg11.dtd"><svg t="1730969572237" class="icon" viewBox="0 0 1000 1000" version="1.1" xmlns="http://www.w3.org/2000/svg" p-id="39106" xmlns:xlink="http://www.w3.org/1999/xlink" width="64" height="64"><path d="M357.1875 48.1875H181.4375v601.1875H55.6875l212.875 250.8125 216.8125-250.8125h-128.125V48.1875zM881.9375 564.3125V374h-70.1875c-11.8125 11-24.0625 21.3125-36.625 31v54.75l33.4375-19.0625v123.625H881.9375zM583.125 243.1875h73.375V52.8125H586.3125C574.4375 63.8125 562.25 74.25 549.6875 83.8125v54.75L583.125 119.5625V243.1875zM796.125 248.125c31.25 0 53.5625-8.125 67.125-24.4375 13.5625-16.3125 20.375-43.875 20.375-82.75 0-33.625-6.4375-57.5625-19.1875-71.75-12.5625-14.25-35.375-21.3125-68.4375-21.3125-31.875 0-54.4375 6.875-67.625 20.625-13.1875 13.6875-19.6875 37.8125-19.6875 72.4375 0 36.375 6.25 63.3125 18.5625 80.875C739.625 239.4375 762.5625 248.125 796.125 248.125zM778.9375 120.6875c2.6875-5.0625 8.5-7.5625 17.0625-7.5625 8.4375 0 14.1875 2.5625 16.9375 7.5625 3.0625 5.0625 4.5 14.75 4.5 29 0 15.9375-1.3125 27.0625-4 33.3125s-8.3125 9.375-17.1875 9.375c-7.8125 0-13.3125-2.625-16.625-7.9375-3.1875-5.375-4.75-16.125-4.75-32.3125C774.875 136.25 776.25 125.75 778.9375 120.6875zM796.125 690.3125c-31.875 0-54.4375 6.9375-67.625 20.625s-19.75 37.8125-19.75 72.375c0 36.375 6.3125 63.375 18.5625 80.9375 12.3125 17.5625 35.25 26.25 68.9375 26.25 31.25 0 53.5-8.0625 67.125-24.4375 13.5625-16.25 20.3125-43.8125 20.3125-82.75 0-33.5625-6.375-57.5-19.1875-71.625C851.9375 697.375 829.125 690.3125 796.125 690.3125zM813.5 825.4375c-2.6875 6.4375-8.3125 9.375-17.1875 9.375-7.8125 0-13.3125-2.5625-16.625-7.9375-3.1875-5.375-4.75-16.125-4.75-32.25 0-16 1.3125-26.5 4-31.5 2.6875-5.125 8.4375-7.6875 17-7.6875 8.4375 0 14.25 2.5625 16.9375 7.6875 3.0625 5 4.5 14.5625 4.5 28.9375C817.5 808.125 816.1875 819.1875 813.5 825.4375zM637.625 369.0625c-31.875 0-54.4375 6.875-67.625 20.625-13.1875 13.75-19.75 37.875-19.75 72.4375 0 36.375 6.25 63.3125 18.5625 80.9375 12.4375 17.4375 35.25 26.25 68.9375 26.25 31.25 0 53.5-8.1875 66.9375-24.4375 13.6875-16.3125 20.375-43.9375 20.375-82.75 0-33.625-6.375-57.5625-19.0625-71.75C693.4375 376.25 670.5625 369.0625 637.625 369.0625zM654.9375 504.1875c-2.6875 6.3125-8.4375 9.375-17.125 9.375-7.8125 0-13.375-2.625-16.6875-7.9375C618 500.25 616.375 489.5625 616.375 473.375c0-15.9375 1.3125-26.4375 3.9375-31.5s8.5-7.5625 17-7.5625c8.5 0 14.25 2.5625 16.9375 7.5625 3.0625 5.0625 4.5 14.75 4.5 29C659 486.875 657.625 497.9375 654.9375 504.1875zM549.6875 726.3125v54.6875l33.4375-19.0625v123.6875h73.375v-190.3125H586.3125C574.4375 706.3125 562.25 716.5625 549.6875 726.3125z" p-id="39107" fill="#C5C5C5"></path></svg>