<?xml version="1.0" standalone="no"?><!DOCTYPE svg PUBLIC "-//W3C//DTD SVG 1.1//EN" "http://www.w3.org/Graphics/SVG/1.1/DTD/svg11.dtd"><svg t="1730968227684" class="icon" viewBox="0 0 1024 1024" version="1.1" xmlns="http://www.w3.org/2000/svg" p-id="18852" xmlns:xlink="http://www.w3.org/1999/xlink" width="64" height="64"><path d="M192.128 903.04l639.744 0c35.008 0 64.128-28.672 64.128-64 0-35.648-28.736-64-64.128-64L192.128 775.04c-35.008 0-64.128 28.608-64.128 64C128 874.624 156.736 903.04 192.128 903.04z" p-id="18853" fill="#C5C5C5"></path><path d="M512 760.96c74.944-116.032 163.264-243.84 238.144-359.872 10.88-16.96-3.648-40.576-22.144-40.576L590.144 359.616 590.144 143.36c0-12.352-9.664-22.4-21.696-22.4 0 0-67.2 0-111.68 0-1.856 0-2.176 0-3.392 0-11.968 0-21.632 10.048-21.632 22.4l0 216.256L298.112 359.616c-13.952 0-22.464 8.064-25.536 17.792-3.456 6.72-3.648 15.104 1.92 23.68C349.376 517.184 438.08 645.056 512 760.96z" p-id="18854" fill="#C5C5C5"></path></svg>