<?xml version="1.0" standalone="no"?><!DOCTYPE svg PUBLIC "-//W3C//DTD SVG 1.1//EN" "http://www.w3.org/Graphics/SVG/1.1/DTD/svg11.dtd"><svg t="1730971120250" class="icon" viewBox="0 0 1024 1024" version="1.1" xmlns="http://www.w3.org/2000/svg" p-id="47253" xmlns:xlink="http://www.w3.org/1999/xlink" width="64" height="64"><path d="M921.2 173.3v538.9H584.4c-26.2 0-47.4 21.3-47.4 47.4v32.7c0 26.2 21.3 47.4 47.4 47.4h145c3.3 0 6 2.7 6 6s-2.7 6-6 6H296.8c-3.3 0-6-2.7-6-6s2.7-6 6-6h144.7c26.2 0 47.4-21.3 47.4-47.4v-32.7c0-26.2-21.3-47.4-47.4-47.4H104.8V173.3h816.4m21.4-40H83.4c-10.2 0-18.5 8.3-18.5 18.5v581.8c0 10.2 8.3 18.5 18.5 18.5h358.1c4.1 0 7.4 3.3 7.4 7.4v32.7c0 4.1-3.3 7.4-7.4 7.4H296.8c-25.4 0-46 20.6-46 46s20.6 46 46 46h432.6c25.4 0 46-20.6 46-46s-20.6-46-46-46h-145c-4.1 0-7.4-3.3-7.4-7.4v-32.7c0-4.1 3.3-7.4 7.4-7.4h358.3c10.2 0 18.5-8.3 18.5-18.5V151.8c0-10.2-8.3-18.5-18.6-18.5z" p-id="47254" fill="#424242"></path><path d="M847.5 664.8h-672c-10.2 0-18.5-8.3-18.5-18.5V235c0-10.2 8.3-18.5 18.5-18.5h671.9c10.2 0 18.5 8.3 18.5 18.5v411.3c0.1 10.2-8.2 18.5-18.4 18.5z" p-id="47255" fill="#424242"></path></svg>